<svg fill="none" height="40" viewBox="0 0 40 40" width="40" xmlns="http://www.w3.org/2000/svg"><path d="m0 0h40v40h-40z" fill="#e60000"/><path d="m15.3924 8.37343c3.1437-1.24929 6.8057-1.16291 9.8656.28812-.8719-.13207-1.7588-.03249-2.6219.11299-2.344.4414-4.5716 1.54106-6.3128 3.17476-1.6695 1.6362-2.8394 3.8072-3.1699 6.1298-.2185 1.6458-.0159 3.372.7247 4.87.7633 1.5717 2.1068 2.8607 3.7262 3.526 1.5603.6584 3.3703.6511 4.9508.0635 2.3715-.8678 4.0754-3.2108 4.2702-5.714.1226-1.6407-.2776-3.386-1.3831-4.6443-1.0553-1.2317-2.5988-1.9102-4.1434-2.2964-.0828-1.5188.6349-3.0193 1.773-4.00713.6321-.56825 1.4165-.93046 2.2276-1.16225l.0616-.0212c2.322 1.11022 4.295 2.94128 5.5521 5.18908 1.077 1.9138 1.6388 4.1191 1.5831 6.3158-.0106 2.8407-1.0755 5.6532-2.901 7.8252-1.7262 2.0714-4.1406 3.5614-6.772 4.158-2.6385.607-5.4771.3452-7.9464-.7729-2.4162-1.0759-4.4631-2.9463-5.76534-5.2471-1.08323-1.912-1.65628-4.1165-1.60872-6.3158.00517-2.7403.9811-5.4594 2.68506-7.6023 1.3611-1.711 3.1667-3.07148 5.2046-3.86987z" fill="#fff"/><path d="m22.6353 8.77479c.863-.14548 1.7499-.245 2.6219-.11293l.1251.02113-.0837.0317c-.8112.23193-1.5956.59407-2.2276 1.16239-1.1382.98772-1.8559 2.48832-1.7731 4.00712 1.5446.3861 3.0881 1.0645 4.1434 2.2963 1.1055 1.2584 1.5058 3.0037 1.3832 4.6443-.1949 2.5032-1.8988 4.8463-4.2702 5.714-1.5805.5877-3.3905.5949-4.9509-.0634-1.6194-.6653-2.9629-1.9543-3.7261-3.5261-.7407-1.4979-.9433-3.2242-.7247-4.8699.3304-2.3227 1.5003-4.4937 3.1699-6.1299 1.7411-1.6337 3.9687-2.73332 6.3128-3.17471z" fill="#e60000"/></svg>